<svg xmlns="http://www.w3.org/2000/svg" width="888" height="888" viewBox="0 0 888 888">
  <title>CrowdFunding copy</title>
  <g>
    <path d="M847.83,544.25C622.2,371,255.63,372.68,213.73,456.1s42.45,258.52,98.35,278.72c25.79,9.32,403.81-46.89,363.13,52.44S353.94,559.07,457.84,571.14s351-98.48,135-250.2" style="fill: none;stroke: #555bd5;stroke-miterlimit: 10;stroke-width: 0.4240416358751379px"/>
    <path d="M846.23,533.8C617.61,364.52,251.12,372.59,210.68,456.73s47,257.74,103.21,277c25.95,8.87,402.93-53.94,364,46.1S352.68,557.24,456.77,567.5,806,462.9,587.37,315" style="fill: none;stroke: #555bd5;stroke-miterlimit: 10;stroke-width: 0.4240416358751379px"/>
    <path d="M844.45,523.38c-231.54-165.27-597.83-150.81-636.8-66s51.45,256.88,108,275.12c26.1,8.41,401.94-61,364.75,39.74s-329-216.85-224.79-208.41S803,453.19,581.81,309.1" style="fill: none;stroke: #555bd5;stroke-miterlimit: 10;stroke-width: 0.4240416358751379px"/>
    <path d="M842.48,513c-234.39-161.2-600.37-140.35-637.84-54.85s55.92,256,112.8,273.19c26.24,8,400.81-68,365.38,33.37S350.05,553.64,454.44,560.25s345.33-116.71,121.7-256.92" style="fill: none;stroke: #555bd5;stroke-miterlimit: 10;stroke-width: 0.4240416358751379px"/>
    <path d="M840.34,502.63c-237.17-157.08-602.73-129.84-638.71-43.7S262,713.86,319.19,730.11c26.37,7.5,399.56-75,365.9,27S348.69,551.87,453.18,556.67s343.24-122.73,117.2-259" style="fill: none;stroke: #555bd5;stroke-miterlimit: 10;stroke-width: 0.4240416358751379px"/>
    <path d="M838,492.32C598.14,339.4,233.11,373,198.64,459.77S263.46,713.6,320.91,728.85c26.51,7,398.19-81.91,366.32,20.6S347.3,550.13,451.85,553.1s341-128.7,112.67-261" style="fill: none;stroke: #555bd5;stroke-miterlimit: 10;stroke-width: 0.4240416358751379px"/>
    <path d="M835.51,482.05C593,333.33,228.62,373.31,195.66,460.66s69.25,252.66,127,266.91c26.63,6.57,396.7-88.85,366.63,14.2S345.88,548.41,450.47,549.56,789.21,414.93,558.56,286.62" style="fill: none;stroke: #555bd5;stroke-miterlimit: 10;stroke-width: 0.4240416358751379px"/>
    <path d="M832.83,471.82c-245.07-144.46-608.7-98.13-640.12-10.22S266.35,713,324.29,726.26c26.74,6.1,395.09-95.76,366.82,7.8S344.43,546.72,449,546,785.37,405.52,552.51,281.25" style="fill: none;stroke: #555bd5;stroke-miterlimit: 10;stroke-width: 0.4240416358751379px"/>
    <path d="M830,461.64c-247.54-140.16-610.31-87.49-640.2,1s78,250.09,136.19,262.31c26.84,5.64,393.36-102.63,366.9,1.4S343,545.05,447.51,542.55,781.36,396.18,546.36,276" style="fill: none;stroke: #555bd5;stroke-miterlimit: 10;stroke-width: 0.4240416358751379px"/>
    <path d="M826.92,451.51C577,315.7,215.17,374.69,186.84,463.64s82.37,248.7,140.74,259.9c26.93,5.17,391.51-109.48,366.87-5s-353-175.13-248.51-179.46,331.24-152.17,94.19-268.24" style="fill: none;stroke: #555bd5;stroke-miterlimit: 10;stroke-width: 0.4240416358751379px"/>
    <path d="M823.71,441.44c-252.29-131.43-613-66.13-639.78,23.3S270.63,712,329.19,722.14c27,4.7,389.54-116.3,366.72-11.41S339.9,541.8,444.32,535.64,772.85,377.72,533.8,265.8" style="fill: none;stroke: #555bd5;stroke-miterlimit: 10;stroke-width: 0.4240416358751379px"/>
    <path d="M820.32,431.42c-254.55-127-614.06-55.42-639.27,34.46s91,245.67,149.72,254.84c27.1,4.22,387.45-123.09,366.47-17.81S338.33,540.21,442.63,532.24,768.35,368.6,527.39,260.87" style="fill: none;stroke: #555bd5;stroke-miterlimit: 10;stroke-width: 0.4240416358751379px"/>
    <path d="M816.75,421.47C560,298.92,201.82,376.77,178.18,467.08s95.28,244,154.15,252.18c27.17,3.75,385.24-129.83,366.1-24.2S336.74,538.65,440.88,528.86s322.82-169.3,80-272.8" style="fill: none;stroke: #555bd5;stroke-miterlimit: 10;stroke-width: 0.4240416358751379px"/>
    <path d="M813,411.58c-258.83-118-615.62-34-637.69,56.75s99.53,242.34,158.54,249.45c27.22,3.28,382.91-136.53,365.62-30.59S335.12,537.12,439.07,525.51,758.89,350.6,514.31,251.36" style="fill: none;stroke: #555bd5;stroke-miterlimit: 10;stroke-width: 0.4240416358751379px"/>
    <path d="M809.11,401.75C548.26,288.24,193,378.54,172.51,469.62S276.25,710.19,335.37,716.27c27.28,2.8,380.48-143.19,365-37S333.47,535.62,437.21,522.2s316.71-180.47,70.44-275.43" style="fill: none;stroke: #555bd5;stroke-miterlimit: 10;stroke-width: 0.4240416358751379px"/>
    <path d="M805,392C542.24,283.06,188.6,379.54,169.71,471S277.63,709.69,336.85,714.74c27.33,2.32,377.92-149.81,364.34-43.33S331.8,534.14,435.29,518.91,748.8,333,500.91,242.3" style="fill: none;stroke: #555bd5;stroke-miterlimit: 10;stroke-width: 0.4240416358751379px"/>
    <path d="M800.77,382.32c-264.64-104.34-616.55-1.7-633.83,90S279,709.17,338.31,713.18C365.67,715,713.55,556.79,701.83,663.5S330.1,532.7,433.31,515.66,743.53,324.26,494.1,238" style="fill: none;stroke: #555bd5;stroke-miterlimit: 10;stroke-width: 0.4240416358751379px"/>
    <path d="M796.36,372.71c-266.43-99.7-616.49,9.07-632.17,101.1S280.37,708.62,339.73,711.59c27.39,1.37,372.46-162.91,362.6-56s-374-124.29-271.06-143.12,306.84-196.79,55.94-278.73" style="fill: none;stroke: #555bd5;stroke-miterlimit: 10;stroke-width: 0.4240416358751379px"/>
    <path d="M791.77,363.18C523.64,268.14,175.53,383,161.46,475.3S281.72,708,341.13,710c27.41.89,369.56-169.38,361.57-62.34S326.63,529.9,429.18,509.27s303.35-202.11,51.06-279.66" style="fill: none;stroke: #555bd5;stroke-miterlimit: 10;stroke-width: 0.4240416358751379px"/>
    <path d="M787,353.74c-269.75-90.35-615.8,30.57-628.26,123.09S283.07,707.45,342.5,708.35c27.42.41,366.55-175.81,360.42-68.64S324.86,528.54,427,506.13s299.78-207.37,46.18-280.51" style="fill: none;stroke: #555bd5;stroke-miterlimit: 10;stroke-width: 0.4240416358751379px"/>
    <path d="M782.1,344.38c-271.28-85.63-615.17,41.31-626,134S284.4,706.83,343.84,706.69c27.42-.06,363.42-182.18,359.17-74.92S323.07,527.22,424.83,503,721,290.45,466.1,221.75" style="fill: none;stroke: #555bd5;stroke-miterlimit: 10;stroke-width: 0.4240416358751379px"/>
    <path d="M777,335.1c-272.73-80.88-614.35,52-623.57,145s132.28,226.13,191.7,225c27.42-.54,360.19-188.5,357.81-81.18S321.25,525.93,422.58,500s292.36-217.72,36.35-282" style="fill: none;stroke: #555bd5;stroke-miterlimit: 10;stroke-width: 0.4240416358751379px"/>
    <path d="M771.79,325.92c-274.11-76.11-613.36,62.76-621,155.8S287,705.52,346.43,703.3c27.41-1,356.85-194.75,356.34-87.4S319.41,524.67,420.27,497,708.78,274.16,451.7,214.4" style="fill: none;stroke: #555bd5;stroke-miterlimit: 10;stroke-width: 0.4240416358751379px"/>
    <path d="M766.39,316.83C491,245.52,154.22,390.28,148.25,483.45S288.34,704.83,347.69,701.58c27.38-1.5,353.39-201,354.75-93.61S317.55,523.45,417.91,494s284.58-227.78,26.49-283" style="fill: none;stroke: #555bd5;stroke-miterlimit: 10;stroke-width: 0.4240416358751379px"/>
    <path d="M760.83,307.83C484.24,241.34,150,392,145.69,485.21s143.94,218.9,203.22,214.62c27.35-2,349.83-207.08,353.07-99.79S315.67,522.25,415.5,491,696.06,258.3,437,207.55" style="fill: none;stroke: #555bd5;stroke-miterlimit: 10;stroke-width: 0.4240416358751379px"/>
    <path d="M755.12,298.93C477.41,237.28,145.89,393.71,143.17,487s147.73,216.36,206.93,211c27.31-2.45,346.16-213.16,351.27-105.93s-387.6-71-288.34-104,276.46-237.58,16.6-283.8" style="fill: none;stroke: #555bd5;stroke-miterlimit: 10;stroke-width: 0.4240416358751379px"/>
    <path d="M749.25,290.14c-278.74-56.8-607.48,105.39-608.57,198.74S292.16,702.62,351.26,696.27c27.27-2.93,342.39-219.16,349.37-112s-388.79-64.27-290.11-99S682.79,242.9,422.16,201.21" style="fill: none;stroke: #555bd5;stroke-miterlimit: 10;stroke-width: 0.4240416358751379px"/>
    <path d="M743.23,281.44c-279.69-51.92-605.55,116-605,209.34S293.41,701.84,352.39,694.47c27.21-3.41,338.51-225.11,347.36-118.13S309.9,518.87,408,482.46s268-247.09,6.68-284.22" style="fill: none;stroke: #555bd5;stroke-miterlimit: 10;stroke-width: 0.4240416358751379px"/>
    <path d="M737.06,272.86c-280.56-47-603.43,126.53-601.27,219.86S294.65,701,353.49,692.64c27.14-3.88,334.53-231,345.25-124.18s-390.8-50.65-293.39-88.77S669,228,407.07,195.4" style="fill: none;stroke: #555bd5;stroke-miterlimit: 10;stroke-width: 0.4240416358751379px"/>
    <path d="M730.74,264.38c-281.33-42.13-601.13,137-597.34,230.32S295.87,700.22,354.55,690.79C381.63,686.44,685,454,697.58,560.61S306,516.78,402.69,477,661.9,220.69,399.45,192.7" style="fill: none;stroke: #555bd5;stroke-miterlimit: 10;stroke-width: 0.4240416358751379px"/>
    <path d="M724.27,256c-282-37.21-598.65,147.52-593.22,240.71s166,202.66,224.53,192.2c27-4.82,326.27-242.51,340.71-136.14S304,515.79,400,474.3s254.7-260.77-8.2-284.18" style="fill: none;stroke: #555bd5;stroke-miterlimit: 10;stroke-width: 0.4240416358751379px"/>
    <path d="M717.66,247.76c-282.63-32.29-596,157.94-588.93,251S298.27,698.52,356.58,687c26.91-5.29,322-248.17,338.28-142.07S302,514.84,397.23,471.67s250.11-265.17-13.16-284" style="fill: none;stroke: #555bd5;stroke-miterlimit: 10;stroke-width: 0.4240416358751379px"/>
    <path d="M710.91,239.63C427.75,212.27,117.77,407.94,126.44,500.89s173,196.74,231.11,184.25c26.81-5.76,317.6-253.76,335.75-147.95S299.92,513.92,394.43,469.1s245.45-269.5-18.11-283.72" style="fill: none;stroke: #555bd5;stroke-miterlimit: 10;stroke-width: 0.4240416358751379px"/>
    <path d="M704,231.61C420.42,209.2,113.9,410.25,124.2,503S300.6,696.73,358.48,683.22C385.19,677,671.61,424,691.6,529.43s-393.73-16.4-300-62.86,240.7-273.74-23.07-283.36" style="fill: none;stroke: #555bd5;stroke-miterlimit: 10;stroke-width: 0.4240416358751379px"/>
    <path d="M697,223.72C413,206.26,110.08,412.63,122,505.22S301.75,695.8,359.38,681.29C386,674.6,667.94,416.61,689.76,521.71s-393.95-9.53-301.06-57.62,235.89-277.9-28-282.91" style="fill: none;stroke: #555bd5;stroke-miterlimit: 10;stroke-width: 0.4240416358751379px"/>
    <path d="M689.81,216c-284.2-12.5-583.52,199.12-570,291.49s183.05,187.42,240.43,171.9c26.47-7.16,303.89-270,327.54-165.32s-394-2.65-302-52.36,231-282-32.94-282.37" style="fill: none;stroke: #555bd5;stroke-miterlimit: 10;stroke-width: 0.4240416358751379px"/>
    <path d="M682.5,208.3c-284.37-7.53-579.95,209.28-564.81,301.4S304,693.89,361.08,677.38c26.35-7.62,299.13-275.29,324.61-171s-394,4.22-302.89-47.08,226.05-286-37.86-281.76" style="fill: none;stroke: #555bd5;stroke-miterlimit: 10;stroke-width: 0.4240416358751379px"/>
    <path d="M675.06,200.79C390.6,198.22,98.85,420.16,115.59,512S305.08,692.91,361.88,675.4c26.21-8.08,294.28-280.47,321.57-176.65S289.55,509.85,379.79,457,600.81,167.1,337,175.91" style="fill: none;stroke: #555bd5;stroke-miterlimit: 10;stroke-width: 0.4240416358751379px"/>
    <path d="M667.5,193.4C383,195.8,95.2,422.8,113.54,514.33s192.62,177.58,249.1,159.08C388.7,664.88,652,387.85,681.08,491.17s-393.65,18-304.34-36.47S592.67,161,329.07,174.43" style="fill: none;stroke: #555bd5;stroke-miterlimit: 10;stroke-width: 0.4240416358751379px"/>
    <path d="M659.8,186.15C375.42,193.51,91.6,425.5,111.53,516.7S307.22,690.89,363.37,671.41c25.91-9,284.31-290.57,315.21-187.77S285.3,508.48,373.65,452.48s210.77-297.4-52.56-279.39" style="fill: none;stroke: #555bd5;stroke-miterlimit: 10;stroke-width: 0.4240416358751379px"/>
    <path d="M652,179C367.77,191.36,88,428.26,109.56,519.1s198.7,170.75,254.5,150.29C389.81,660,643.26,373.9,676,476.15s-392.78,31.7-305.43-25.83,205.55-301-57.43-278.44" style="fill: none;stroke: #555bd5;stroke-miterlimit: 10;stroke-width: 0.4240416358751379px"/>
    <path d="M644,172.06c-283.94,17.28-559.5,259-536.39,349.48S309.28,688.79,364.72,667.36c25.58-9.88,274-300.31,308.47-198.65S281,507.26,367.35,448.21s200.27-304.58-62.27-277.39" style="fill: none;stroke: #555bd5;stroke-miterlimit: 10;stroke-width: 0.4240416358751379px"/>
    <path d="M636,165.22C352.37,187.45,81.07,434,105.75,524S310.29,687.72,365.34,665.32c25.41-10.33,268.72-305.05,305-204s-391.44,45.39-306.15-15.16S559.07,138.13,297,169.9" style="fill: none;stroke: #555bd5;stroke-miterlimit: 10;stroke-width: 0.4240416358751379px"/>
    <path d="M627.79,158.52c-283.17,27.18-550.13,278.4-523.88,368s207.36,160.11,262,136.76C391.15,652.5,629.28,353.58,667.28,454s-390.59,52.22-306.37-9.81,189.51-311.38-71.92-275" style="fill: none;stroke: #555bd5;stroke-miterlimit: 10;stroke-width: 0.4240416358751379px"/>
    <path d="M619.49,152C336.84,184.08,74.31,439.93,102.12,529S312.24,685.51,366.48,661.21C391.51,650,624.39,347,664.13,446.69s-389.62,59-306.49-4.47,184.05-314.64-76.71-273.75" style="fill: none;stroke: #555bd5;stroke-miterlimit: 10;stroke-width: 0.4240416358751379px"/>
    <path d="M611.08,145.56C329,182.61,71,443,100.37,531.61S313.19,684.39,367,659.15c24.82-11.65,252.38-318.7,293.86-219.69s-388.53,65.81-306.53.88S532.86,122.54,272.86,168" style="fill: none;stroke: #555bd5;stroke-miterlimit: 10;stroke-width: 0.4240416358751379px"/>
    <path d="M602.56,139.3c-281.36,42-534.8,306.81-503.9,394.9s215.45,149,268.81,122.87C392.09,645,614.26,334,657.45,432.28S270.13,504.87,351,438.52s173-320.87-86.21-270.91" style="fill: none;stroke: #555bd5;stroke-miterlimit: 10;stroke-width: 0.4240416358751379px"/>
    <path d="M593.93,133.19C313.34,180.06,64.56,449.29,97,536.83S315,682.09,367.92,655c24.4-12.5,241.1-327.31,286-229.81s-386,79.34-306.31,11.58S515,112.91,256.7,167.39" style="fill: none;stroke: #555bd5;stroke-miterlimit: 10;stroke-width: 0.4240416358751379px"/>
    <path d="M585.19,127.23C305.47,179,61.43,452.52,95.38,539.48S315.91,680.91,368.32,652.89c24.19-12.93,235.36-331.47,282-234.77s-384.55,86.06-306.06,16.93,161.66-326.72-95.61-267.73" style="fill: none;stroke: #555bd5;stroke-miterlimit: 10;stroke-width: 0.4240416358751379px"/>
    <path d="M576.35,121.43c-278.78,56.63-518,334.38-482.54,420.73s223,137.56,274.88,108.63c24-13.35,229.54-335.53,277.82-239.65s-383,92.75-305.72,22.26,155.93-329.48-100.27-266" style="fill: none;stroke: #555bd5;stroke-miterlimit: 10;stroke-width: 0.4240416358751379px"/>
    <path d="M567.41,115.78C289.67,177.27,55.32,459.15,92.29,544.87S317.62,678.52,369,648.68c23.72-13.76,223.65-339.48,273.6-244.46s-381.32,99.43-305.28,27.6S487.49,99.66,232.44,167.58" style="fill: none;stroke: #555bd5;stroke-miterlimit: 10;stroke-width: 0.4240416358751379px"/>
  </g>
  <g>
    <path d="M444,356.81A87.19,87.19,0,1,0,531.19,444h0A87.19,87.19,0,0,0,444,356.81Z" style="fill: #fff"/>
    <path d="M394.65,363.38H363.39v31.26A95.4,95.4,0,0,1,394.65,363.38Z" style="fill: #fff"/>
    <path d="M524.62,394.64V363.38H493.38A95.34,95.34,0,0,1,524.62,394.64Z" style="fill: #fff"/>
    <path d="M363.39,493.36v31.25h31.26A95.47,95.47,0,0,1,363.39,493.36Z" style="fill: #fff"/>
    <path d="M493.38,524.61h31.24V493.36A95.31,95.31,0,0,1,493.38,524.61Z" style="fill: #fff"/>
    <path d="M444,380.65A63.35,63.35,0,1,1,380.67,444h0A63.44,63.44,0,0,1,444,380.65" style="fill: #555bd5"/>
    <path d="M445,446.12l-6.58,22.24h35.25a1.83,1.83,0,0,1,1.8,1.81,2.09,2.09,0,0,1,0,.5l-3.07,10.56a2.41,2.41,0,0,1-2.32,1.75h-53.9l9.1-30.73L415.2,455.3l2.23-7.18,10.08-3.06,12.79-43.18a2.38,2.38,0,0,1,2.3-1.77h13.64a1.82,1.82,0,0,1,1.82,1.8,2.08,2.08,0,0,1-.07.5l-10.73,36.52,10.08-3.07-2.17,7.37Z" style="fill: #fff"/>
  </g>
  <g>
    <g>
      <ellipse cx="342.04" cy="726.21" rx="24.71" ry="10.11" transform="translate(-457.36 799.25) rotate(-70)" style="fill: #555bd5;stroke: #fff;stroke-miterlimit: 10;stroke-width: 2px"/>
      <circle cx="352.84" cy="696.55" r="12.35" style="fill: #555bd5;stroke: #fff;stroke-miterlimit: 10;stroke-width: 2px"/>
      <g>
        <line x1="389.23" y1="596.57" x2="371.48" y2="645.35" style="fill: none;stroke: #fff;stroke-miterlimit: 10;stroke-width: 2px"/>
        <polygon points="378.86 595.9 394.14 583.08 397.6 602.72 378.86 595.9" style="fill: #fff"/>
        <polygon points="363.1 639.19 366.57 658.83 381.84 646.02 363.1 639.19" style="fill: #fff"/>
      </g>
    </g>
    <g>
      <ellipse cx="252.08" cy="675.29" rx="24.71" ry="10.11" transform="translate(-427.25 434.32) rotate(-50)" style="fill: #555bd5;stroke: #fff;stroke-miterlimit: 10;stroke-width: 2px"/>
      <circle cx="272.37" cy="651.1" r="12.35" style="fill: #555bd5;stroke: #fff;stroke-miterlimit: 10;stroke-width: 2px"/>
      <g>
        <line x1="340.76" y1="569.6" x2="307.39" y2="609.36" style="fill: none;stroke: #fff;stroke-miterlimit: 10;stroke-width: 2px"/>
        <polygon points="331.24 565.43 349.98 558.61 346.52 578.25 331.24 565.43" style="fill: #fff"/>
        <polygon points="301.63 600.72 298.17 620.36 316.91 613.54 301.63 600.72" style="fill: #fff"/>
      </g>
    </g>
    <g>
      <ellipse cx="184.96" cy="596.66" rx="24.71" ry="10.11" transform="translate(-273.55 172.42) rotate(-30)" style="fill: #555bd5;stroke: #fff;stroke-miterlimit: 10;stroke-width: 2px"/>
      <circle cx="212.3" cy="580.88" r="12.35" style="fill: #555bd5;stroke: #fff;stroke-miterlimit: 10;stroke-width: 2px"/>
      <g>
        <line x1="304.43" y1="527.68" x2="259.48" y2="553.64" style="fill: none;stroke: #fff;stroke-miterlimit: 10;stroke-width: 2px"/>
        <polygon points="296.92 520.5 316.86 520.5 306.89 537.78 296.92 520.5" style="fill: #fff"/>
        <polygon points="257.02 543.54 247.05 560.81 266.99 560.81 257.02 543.54" style="fill: #fff"/>
      </g>
    </g>
    <g>
      <ellipse cx="148.77" cy="499.82" rx="24.71" ry="10.11" transform="matrix(0.98, -0.17, 0.17, 0.98, -84.53, 33.43)" style="fill: #555bd5;stroke: #fff;stroke-miterlimit: 10;stroke-width: 2px"/>
      <circle cx="179.86" cy="494.34" r="12.35" style="fill: #555bd5;stroke: #fff;stroke-miterlimit: 10;stroke-width: 2px"/>
      <g>
        <line x1="284.64" y1="475.87" x2="233.52" y2="484.88" style="fill: none;stroke: #fff;stroke-miterlimit: 10;stroke-width: 2px"/>
        <polygon points="280.03 466.55 298.77 473.37 283.5 486.19 280.03 466.55" style="fill: #fff"/>
        <polygon points="234.66 474.55 219.38 487.37 238.12 494.19 234.66 474.55" style="fill: #fff"/>
      </g>
    </g>
    <g>
      <ellipse cx="147.89" cy="396.45" rx="10.11" ry="24.71" transform="translate(-268.21 473.25) rotate(-80)" style="fill: #555bd5;stroke: #fff;stroke-miterlimit: 10;stroke-width: 2px"/>
      <circle cx="178.98" cy="401.93" r="12.35" style="fill: #555bd5;stroke: #fff;stroke-miterlimit: 10;stroke-width: 2px"/>
      <g>
        <line x1="283.76" y1="420.4" x2="232.64" y2="411.39" style="fill: none;stroke: #fff;stroke-miterlimit: 10;stroke-width: 2px"/>
        <polygon points="282.62 410.08 297.89 422.9 279.15 429.72 282.62 410.08" style="fill: #fff"/>
        <polygon points="237.24 402.08 218.5 408.9 233.78 421.72 237.24 402.08" style="fill: #fff"/>
      </g>
    </g>
    <g>
      <ellipse cx="182.42" cy="299.01" rx="10.11" ry="24.71" transform="translate(-167.74 307.48) rotate(-60)" style="fill: #555bd5;stroke: #fff;stroke-miterlimit: 10;stroke-width: 2px"/>
      <circle cx="209.76" cy="314.79" r="12.35" style="fill: #555bd5;stroke: #fff;stroke-miterlimit: 10;stroke-width: 2px"/>
      <g>
        <line x1="301.9" y1="367.99" x2="256.95" y2="342.03" style="fill: none;stroke: #fff;stroke-miterlimit: 10;stroke-width: 2px"/>
        <polygon points="304.36 357.89 314.33 375.16 294.39 375.17 304.36 357.89" style="fill: #fff"/>
        <polygon points="264.46 334.86 244.52 334.86 254.49 352.13 264.46 334.86" style="fill: #fff"/>
      </g>
    </g>
    <g>
      <ellipse cx="248.19" cy="219.25" rx="10.11" ry="24.71" transform="translate(-82.87 210.83) rotate(-40)" style="fill: #555bd5;stroke: #fff;stroke-miterlimit: 10;stroke-width: 2px"/>
      <circle cx="268.49" cy="243.43" r="12.35" style="fill: #555bd5;stroke: #fff;stroke-miterlimit: 10;stroke-width: 2px"/>
      <g>
        <line x1="336.87" y1="324.94" x2="303.51" y2="285.17" style="fill: none;stroke: #fff;stroke-miterlimit: 10;stroke-width: 2px"/>
        <polygon points="342.64 316.29 346.1 335.93 327.36 329.11 342.64 316.29" style="fill: #fff"/>
        <polygon points="313.02 281 294.28 274.18 297.75 293.82 313.02 281" style="fill: #fff"/>
      </g>
    </g>
    <g>
      <ellipse cx="337.28" cy="166.8" rx="10.11" ry="24.71" transform="translate(-36.71 125.42) rotate(-20)" style="fill: #555bd5;stroke: #fff;stroke-miterlimit: 10;stroke-width: 2px"/>
      <circle cx="348.08" cy="196.47" r="12.35" style="fill: #555bd5;stroke: #fff;stroke-miterlimit: 10;stroke-width: 2px"/>
      <g>
        <line x1="384.46" y1="296.44" x2="366.71" y2="247.67" style="fill: none;stroke: #fff;stroke-miterlimit: 10;stroke-width: 2px"/>
        <polygon points="392.84 290.29 389.37 309.93 374.1 297.11 392.84 290.29" style="fill: #fff"/>
        <polygon points="377.08 247 361.8 234.18 358.34 253.82 377.08 247" style="fill: #fff"/>
      </g>
    </g>
    <g>
      <ellipse cx="438.93" cy="147.98" rx="10.11" ry="24.71" style="fill: #555bd5;stroke: #fff;stroke-miterlimit: 10;stroke-width: 2px"/>
      <circle cx="438.93" cy="179.55" r="12.35" style="fill: #555bd5;stroke: #fff;stroke-miterlimit: 10;stroke-width: 2px"/>
      <g>
        <line x1="438.93" y1="285.95" x2="438.93" y2="234.04" style="fill: none;stroke: #fff;stroke-miterlimit: 10;stroke-width: 2px"/>
        <polygon points="448.9 283.03 438.93 300.3 428.96 283.03 448.9 283.03" style="fill: #fff"/>
        <polygon points="448.9 236.96 438.93 219.69 428.96 236.96 448.9 236.96" style="fill: #fff"/>
      </g>
    </g>
    <g>
      <ellipse cx="540.89" cy="165.07" rx="24.71" ry="10.11" transform="translate(200.78 616.88) rotate(-70)" style="fill: #555bd5;stroke: #fff;stroke-miterlimit: 10;stroke-width: 2px"/>
      <circle cx="530.09" cy="194.73" r="12.35" style="fill: #555bd5;stroke: #fff;stroke-miterlimit: 10;stroke-width: 2px"/>
      <g>
        <line x1="493.7" y1="294.71" x2="511.46" y2="245.93" style="fill: none;stroke: #fff;stroke-miterlimit: 10;stroke-width: 2px"/>
        <polygon points="504.07 295.38 488.79 308.2 485.33 288.56 504.07 295.38" style="fill: #fff"/>
        <polygon points="519.83 252.08 516.37 232.44 501.09 245.26 519.83 252.08" style="fill: #fff"/>
      </g>
    </g>
    <g>
      <ellipse cx="630.85" cy="215.99" rx="24.71" ry="10.11" transform="translate(59.89 560.42) rotate(-50)" style="fill: #555bd5;stroke: #fff;stroke-miterlimit: 10;stroke-width: 2px"/>
      <circle cx="610.56" cy="240.18" r="12.35" style="fill: #555bd5;stroke: #fff;stroke-miterlimit: 10;stroke-width: 2px"/>
      <g>
        <line x1="542.17" y1="321.68" x2="575.54" y2="281.91" style="fill: none;stroke: #fff;stroke-miterlimit: 10;stroke-width: 2px"/>
        <polygon points="551.69 325.85 532.95 332.67 536.41 313.03 551.69 325.85" style="fill: #fff"/>
        <polygon points="581.3 290.56 584.76 270.92 566.02 277.74 581.3 290.56" style="fill: #fff"/>
      </g>
    </g>
    <g>
      <ellipse cx="697.98" cy="294.62" rx="24.71" ry="10.11" transform="translate(-53.8 388.46) rotate(-30)" style="fill: #555bd5;stroke: #fff;stroke-miterlimit: 10;stroke-width: 2px"/>
      <circle cx="670.64" cy="310.4" r="12.35" style="fill: #555bd5;stroke: #fff;stroke-miterlimit: 10;stroke-width: 2px"/>
      <g>
        <line x1="578.5" y1="363.6" x2="623.45" y2="337.64" style="fill: none;stroke: #fff;stroke-miterlimit: 10;stroke-width: 2px"/>
        <polygon points="586.01 370.77 566.07 370.77 576.04 353.5 586.01 370.77" style="fill: #fff"/>
        <polygon points="625.91 347.74 635.88 330.47 615.94 330.46 625.91 347.74" style="fill: #fff"/>
      </g>
    </g>
    <g>
      <ellipse cx="734.16" cy="391.46" rx="24.71" ry="10.11" transform="translate(-56.82 133.43) rotate(-10)" style="fill: #555bd5;stroke: #fff;stroke-miterlimit: 10;stroke-width: 2px"/>
      <circle cx="703.07" cy="396.94" r="12.35" style="fill: #555bd5;stroke: #fff;stroke-miterlimit: 10;stroke-width: 2px"/>
      <g>
        <line x1="598.29" y1="415.41" x2="649.41" y2="406.4" style="fill: none;stroke: #fff;stroke-miterlimit: 10;stroke-width: 2px"/>
        <polygon points="602.9 424.73 584.16 417.9 599.43 405.08 602.9 424.73" style="fill: #fff"/>
        <polygon points="648.27 416.73 663.55 403.91 644.81 397.08 648.27 416.73" style="fill: #fff"/>
      </g>
    </g>
    <g>
      <ellipse cx="735.04" cy="494.83" rx="10.11" ry="24.71" transform="translate(120.09 1132.78) rotate(-80)" style="fill: #555bd5;stroke: #fff;stroke-miterlimit: 10;stroke-width: 2px"/>
      <circle cx="703.95" cy="489.35" r="12.35" style="fill: #555bd5;stroke: #fff;stroke-miterlimit: 10;stroke-width: 2px"/>
      <g>
        <line x1="599.17" y1="470.87" x2="650.29" y2="479.89" style="fill: none;stroke: #fff;stroke-miterlimit: 10;stroke-width: 2px"/>
        <polygon points="600.32 481.2 585.04 468.38 603.78 461.56 600.32 481.2" style="fill: #fff"/>
        <polygon points="645.69 489.2 664.43 482.38 649.15 469.56 645.69 489.2" style="fill: #fff"/>
      </g>
    </g>
    <g>
      <ellipse cx="700.51" cy="592.27" rx="10.11" ry="24.71" transform="translate(-162.67 902.8) rotate(-60)" style="fill: #555bd5;stroke: #fff;stroke-miterlimit: 10;stroke-width: 2px"/>
      <circle cx="673.17" cy="576.49" r="12.35" style="fill: #555bd5;stroke: #fff;stroke-miterlimit: 10;stroke-width: 2px"/>
      <g>
        <line x1="581.03" y1="523.29" x2="625.99" y2="549.25" style="fill: none;stroke: #fff;stroke-miterlimit: 10;stroke-width: 2px"/>
        <polygon points="578.57 533.39 568.6 516.12 588.54 516.11 578.57 533.39" style="fill: #fff"/>
        <polygon points="618.47 556.42 638.41 556.42 628.45 539.15 618.47 556.42" style="fill: #fff"/>
      </g>
    </g>
    <g>
      <ellipse cx="634.74" cy="672.03" rx="10.11" ry="24.71" transform="translate(-283.47 565.23) rotate(-40)" style="fill: #555bd5;stroke: #fff;stroke-miterlimit: 10;stroke-width: 2px"/>
      <circle cx="614.44" cy="647.84" r="12.35" style="fill: #555bd5;stroke: #fff;stroke-miterlimit: 10;stroke-width: 2px"/>
      <g>
        <line x1="546.06" y1="566.34" x2="579.42" y2="606.11" style="fill: none;stroke: #fff;stroke-miterlimit: 10;stroke-width: 2px"/>
        <polygon points="540.29 574.99 536.83 555.35 555.57 562.17 540.29 574.99" style="fill: #fff"/>
        <polygon points="569.91 610.28 588.65 617.1 585.19 597.46 569.91 610.28" style="fill: #fff"/>
      </g>
    </g>
    <g>
      <ellipse cx="545.65" cy="724.48" rx="10.11" ry="24.71" transform="translate(-214.88 230.32) rotate(-20)" style="fill: #555bd5;stroke: #fff;stroke-miterlimit: 10;stroke-width: 2px"/>
      <circle cx="534.85" cy="694.81" r="12.35" style="fill: #555bd5;stroke: #fff;stroke-miterlimit: 10;stroke-width: 2px"/>
      <g>
        <line x1="498.47" y1="594.84" x2="516.22" y2="643.61" style="fill: none;stroke: #fff;stroke-miterlimit: 10;stroke-width: 2px"/>
        <polygon points="490.09 600.99 493.56 581.35 508.83 594.17 490.09 600.99" style="fill: #fff"/>
        <polygon points="505.85 644.28 521.13 657.1 524.59 637.46 505.85 644.28" style="fill: #fff"/>
      </g>
    </g>
    <g>
      <ellipse cx="444" cy="743.29" rx="10.11" ry="24.71" style="fill: #555bd5;stroke: #fff;stroke-miterlimit: 10;stroke-width: 2px"/>
      <circle cx="444" cy="711.73" r="12.35" style="fill: #555bd5;stroke: #fff;stroke-miterlimit: 10;stroke-width: 2px"/>
      <g>
        <line x1="444" y1="605.33" x2="444" y2="657.24" style="fill: none;stroke: #fff;stroke-miterlimit: 10;stroke-width: 2px"/>
        <polygon points="434.03 608.25 444 590.98 453.97 608.25 434.03 608.25" style="fill: #fff"/>
        <polygon points="434.03 654.32 444 671.59 453.97 654.32 434.03 654.32" style="fill: #fff"/>
      </g>
    </g>
  </g>
</svg>
