<svg xmlns="http://www.w3.org/2000/svg" width="888" height="888" viewBox="0 0 888 888">
  <title>NFTs Transparent</title>
  <g>
    <path d="M275,833.52c282-37,540.07-297.43,510.71-386S572.9,294.69,519.09,319.94c-24.82,11.64-252.38,318.7-293.86,219.69s388.53-65.82,306.53-.89S353.23,856.55,613.23,811.11" style="fill: none;stroke: #555bd5;stroke-miterlimit: 10;stroke-width: 0.4240416358751379px"/>
    <path d="M278,832.78c281.36-42,534.8-306.81,503.9-394.9S566.46,288.83,513.09,315c-24.62,12.08-246.78,323.06-290,224.79s387.33-72.59,306.47-6.24-173,320.87,86.21,270.91" style="fill: none;stroke: #555bd5;stroke-miterlimit: 10;stroke-width: 0.4240416358751379px"/>
    <path d="M281,832c280.59-46.86,529.36-316.09,496.93-403.63S559.91,283.09,507,310.19C482.6,322.7,265.9,637.5,221,540s386-79.33,306.3-11.58S360,852.26,618.23,797.78" style="fill: none;stroke: #555bd5;stroke-miterlimit: 10;stroke-width: 0.4240416358751379px"/>
    <path d="M284,831.13c279.72-51.75,523.76-325.28,489.8-412.24S553.26,277.45,500.84,305.48c-24.18,12.93-235.35,331.47-282,234.77s384.56-86.06,306.06-16.93S363.29,850,620.56,791.05" style="fill: none;stroke: #555bd5;stroke-miterlimit: 10;stroke-width: 0.4240416358751379px"/>
    <path d="M286.93,830.23c278.78-56.63,518-334.37,482.54-420.73s-223-137.56-274.88-108.63C470.64,314.22,265.06,636.4,216.78,540.53s383-92.76,305.71-22.27-155.93,329.49,100.27,266" style="fill: none;stroke: #555bd5;stroke-miterlimit: 10;stroke-width: 0.4240416358751379px"/>
    <path d="M289.88,829.28C567.62,767.8,802,485.91,765,400.19S539.67,266.54,488.27,296.38c-23.72,13.76-223.65,339.48-273.6,244.46S596,441.42,520,513.25,369.8,845.4,624.85,777.48" style="fill: none;stroke: #555bd5;stroke-miterlimit: 10;stroke-width: 0.4240416358751379px"/>
    <path d="M292.8,828.28C569.43,762,798.82,476,760.36,391s-227.62-129.69-278.5-99C458.39,306.17,264.17,635.33,212.57,541.2S592.1,435.13,517.33,508.28,373,843,626.82,770.64" style="fill: none;stroke: #555bd5;stroke-miterlimit: 10;stroke-width: 0.4240416358751379px"/>
    <path d="M295.71,827.23c275.43-71.15,499.8-361,459.85-445.41s-229.85-125.71-280.18-94.1c-23.22,14.59-211.66,347.08-264.9,253.87S588.1,428.91,514.62,503.35s-138.47,337.2,114,260.41" style="fill: none;stroke: #555bd5;stroke-miterlimit: 10;stroke-width: 0.4240416358751379px"/>
    <path d="M298.6,826.12c274.14-75.94,493.42-369.7,452-453.37s-232-121.67-281.79-89.18c-23,15-205.57,350.72-260.42,258.44S584,422.77,511.82,498.48,379.25,838,630.4,756.86" style="fill: none;stroke: #555bd5;stroke-miterlimit: 10;stroke-width: 0.4240416358751379px"/>
    <path d="M301.46,825c272.79-80.71,486.9-378.26,444-461.19S511.4,246.17,462.2,279.52c-22.7,15.39-199.42,354.26-255.88,263s373.45-125.79,302.62-48.83S382.32,835.47,632,749.92" style="fill: none;stroke: #555bd5;stroke-miterlimit: 10;stroke-width: 0.4240416358751379px"/>
    <path d="M304.31,823.76C575.64,738.3,784.53,437.07,740.23,354.9S504.11,241.39,455.5,275.6C433.08,291.38,262.3,633.28,204.26,543S575.45,410.69,506,488.88,385.34,832.86,633.5,743" style="fill: none;stroke: #555bd5;stroke-miterlimit: 10;stroke-width: 0.4240416358751379px"/>
    <path d="M307.14,822.51c269.8-90.18,473.4-395,427.67-476.4S496.74,236.74,448.74,271.79C426.59,288,261.81,632.79,202.2,543.51S571,404.77,502.92,484.15s-114.61,346,132,251.82" style="fill: none;stroke: #555bd5;stroke-miterlimit: 10;stroke-width: 0.4240416358751379px"/>
    <path d="M309.94,821.21C578.13,726.33,776.37,418,729.23,337.41S489.3,232.22,441.91,268.1c-21.86,16.55-180.6,364.2-241.76,276S566.5,398.93,499.79,479.49,391.24,827.47,636.11,729" style="fill: none;stroke: #555bd5;stroke-miterlimit: 10;stroke-width: 0.4240416358751379px"/>
    <path d="M312.72,819.85c266.49-99.54,459.33-411.29,410.78-491S481.77,227.83,435,264.53c-21.57,16.93-174.22,367.3-236.91,280.16s363.77-151.53,298.47-69.82S394.11,824.69,637.23,721.93" style="fill: none;stroke: #555bd5;stroke-miterlimit: 10;stroke-width: 0.4240416358751379px"/>
    <path d="M315.48,818.45C580.19,714.28,767.56,399.21,717.63,320.32s-243.46-96.75-289.57-59.24c-21.27,17.3-167.78,370.29-232,284.25s361.07-157.85,297.21-75S396.94,821.87,638.23,714.89" style="fill: none;stroke: #555bd5;stroke-miterlimit: 10;stroke-width: 0.4240416358751379px"/>
    <path d="M318.21,817C581.06,708.22,762.9,389.93,711.61,311.93S466.5,219.44,421.05,257.75c-21,17.67-161.29,373.16-227,288.26s358.25-164.13,295.85-80.19-90.2,353.18,149.19,242" style="fill: none;stroke: #555bd5;stroke-miterlimit: 10;stroke-width: 0.4240416358751379px"/>
    <path d="M320.92,815.51C581.83,702.16,758.09,380.74,705.44,303.65S458.75,215.45,414,254.54c-20.65,18-154.76,375.92-221.92,292.18S547.4,376.36,486.47,461.38s-84,354.71,153.39,239.36" style="fill: none;stroke: #555bd5;stroke-miterlimit: 10;stroke-width: 0.4240416358751379px"/>
    <path d="M323.6,814c258.89-117.89,429.51-442.34,375.53-518.5s-248.19-83.88-292.27-44c-20.34,18.4-148.18,378.57-216.79,296S542.38,370.93,482.94,457,405.13,813.12,640.49,693.65" style="fill: none;stroke: #555bd5;stroke-miterlimit: 10;stroke-width: 0.4240416358751379px"/>
    <path d="M326.25,812.38C583.05,690,748,362.62,692.67,287.41s-249.61-79.54-293-38.9c-20,18.75-141.54,381.09-211.59,299.74s349.18-182.66,291.25-95.56S407.75,810.11,641,686.55" style="fill: none;stroke: #555bd5;stroke-miterlimit: 10;stroke-width: 0.4240416358751379px"/>
    <path d="M328.88,810.75C583.5,683.89,742.69,353.69,686.08,279.46s-251-75.17-293.63-33.78c-19.68,19.09-134.87,383.5-206.32,303.39S532.06,360.35,475.66,448.44s-65.33,358.61,165.71,231" style="fill: none;stroke: #555bd5;stroke-miterlimit: 10;stroke-width: 0.4240416358751379px"/>
    <path d="M331.47,809.06c252.37-131.27,405.78-464.2,347.88-537.43S427.11,200.85,385.18,243c-19.35,19.44-128.16,385.8-201,306.95S526.77,355.19,471.92,444.25,412.85,804,641.63,672.33" style="fill: none;stroke: #555bd5;stroke-miterlimit: 10;stroke-width: 0.4240416358751379px"/>
    <path d="M334,807.34c250-135.66,397.61-471.22,338.44-543.43S419.05,197.55,377.86,240.4c-19,19.77-121.41,388-195.62,310.4S521.38,350.12,468.09,440.13,415.31,800.81,641.76,665.21" style="fill: none;stroke: #555bd5;stroke-miterlimit: 10;stroke-width: 0.4240416358751379px"/>
    <path d="M336.57,805.57c247.64-140,389.33-478.09,328.91-549.25s-254.55-61.93-295-18.37c-18.66,20.1-114.62,390-190.16,313.77S515.91,345.15,464.2,436.07s-46.48,361.55,177.57,222" style="fill: none;stroke: #555bd5;stroke-miterlimit: 10;stroke-width: 0.4240416358751379px"/>
    <path d="M339.08,803.76C584.23,659.45,720,319,658.35,248.85s-255.6-57.48-295.27-13.22c-18.3,20.42-107.79,392-184.66,317S510.35,340.28,460.23,432.09,420.07,794.39,641.65,651" style="fill: none;stroke: #555bd5;stroke-miterlimit: 10;stroke-width: 0.4240416358751379px"/>
    <path d="M341.55,801.9C584.15,653.34,714,310.52,651.09,241.5s-256.56-53-295.45-8.06c-17.95,20.74-100.94,393.8-179.1,320.22S504.71,335.5,456.2,428.17s-33.83,363,185.21,215.69" style="fill: none;stroke: #555bd5;stroke-miterlimit: 10;stroke-width: 0.4240416358751379px"/>
    <path d="M344,800C584,647.22,707.76,302.19,643.7,234.28s-257.45-48.52-295.55-2.9c-17.58,21.05-94,395.5-173.48,323.29S499,330.83,452.1,424.33,424.61,787.81,641.05,636.75" style="fill: none;stroke: #555bd5;stroke-miterlimit: 10;stroke-width: 0.4240416358751379px"/>
    <path d="M346.4,798.05C583.66,641.12,701.42,294,636.19,227.2s-258.26-44-295.56,2.25C323.42,250.8,253.5,626.53,172.82,555.72S493.18,326.25,447.93,420.56s-21.14,363.9,192.63,209.09" style="fill: none;stroke: #555bd5;stroke-miterlimit: 10;stroke-width: 0.4240416358751379px"/>
    <path d="M348.77,796.07C583.26,635,694.94,285.87,628.55,220.24s-259-39.51-295.47,7.41C316.25,249.3,252.89,626.19,171,556.81s316.3-235,272.71-139.95S428.91,781.08,640,622.55" style="fill: none;stroke: #555bd5;stroke-miterlimit: 10;stroke-width: 0.4240416358751379px"/>
    <path d="M351.1,794.05C582.75,628.92,688.32,277.88,620.8,213.42s-259.64-35-295.3,12.57c-16.45,21.94-73.22,399.88-156.32,331.93S481.33,317.4,439.41,413.23,431,777.66,639.21,615.47" style="fill: none;stroke: #555bd5;stroke-miterlimit: 10;stroke-width: 0.4240416358751379px"/>
    <path d="M353.4,792C582.13,622.84,681.56,270,612.92,206.74s-260.2-30.45-295,17.72c-16.07,22.22-66.23,401.09-150.51,334.61S475.29,313.14,435.05,409.68,433,774.2,638.35,608.41" style="fill: none;stroke: #555bd5;stroke-miterlimit: 10;stroke-width: 0.4240416358751379px"/>
    <path d="M355.67,789.87c225.74-173.1,319-527.61,249.26-589.68s-260.69-25.9-294.67,22.87C294.58,245.56,251,625.25,165.61,560.24s303.57-251.26,265-154,4.29,364.5,206.74,195.14" style="fill: none;stroke: #555bd5;stroke-miterlimit: 10;stroke-width: 0.4240416358751379px"/>
    <path d="M357.9,787.73c222.68-177,309.74-533.11,238.93-593.94s-261.11-21.35-294.23,28C287.32,244.56,250.41,625,163.86,561.45S463,304.93,426.15,402.82s10.65,364.36,210.11,191.5" style="fill: none;stroke: #555bd5;stroke-miterlimit: 10;stroke-width: 0.4240416358751379px"/>
    <path d="M360.09,785.55c219.56-180.88,300.39-538.43,228.53-598s-261.44-16.78-293.7,33.14c-14.88,23-45.15,404-132.79,342S456.74,301,421.61,399.5s17,364.12,213.42,187.81" style="fill: none;stroke: #555bd5;stroke-miterlimit: 10;stroke-width: 0.4240416358751379px"/>
    <path d="M362.24,783.32c216.37-184.68,291-543.58,218.06-601.92s-261.7-12.22-293.08,38.26C272.74,243,249.13,624.4,160.42,564s290-266.8,256.59-167.68S440.37,760,633.68,580.32" style="fill: none;stroke: #555bd5;stroke-miterlimit: 10;stroke-width: 0.4240416358751379px"/>
    <path d="M364.35,781.07C577.46,592.63,645.77,232.48,571.87,175.43S310,167.78,279.51,218.8c-14.07,23.53-31,405.34-120.77,346.45S444,293.42,412.36,393.11s29.71,363.31,219.85,180.25" style="fill: none;stroke: #555bd5;stroke-miterlimit: 10;stroke-width: 0.4240416358751379px"/>
    <path d="M366.42,778.77c209.79-192.12,271.8-553.41,196.92-609.16s-262-3.08-291.56,48.46c-13.66,23.78-23.94,405.82-114.71,348.51S437.59,289.81,407.66,390s36,362.73,223,176.38" style="fill: none;stroke: #555bd5;stroke-miterlimit: 10;stroke-width: 0.4240416358751379px"/>
    <path d="M368.45,776.44C574.86,580.69,630.56,218.37,554.71,163.93s-262,1.49-290.67,53.54c-13.24,24-16.85,406.18-108.61,350.46S431.07,286.31,402.9,387s42.36,362.05,226,172.47" style="fill: none;stroke: #555bd5;stroke-miterlimit: 10;stroke-width: 0.4240416358751379px"/>
    <path d="M370.44,774.07C573.4,574.75,622.77,211.51,546,158.41s-261.91,6.06-289.7,58.6c-12.82,24.25-9.76,406.42-102.47,352.31S424.5,282.93,398.09,384.14s48.68,361.25,229,168.49" style="fill: none;stroke: #555bd5;stroke-miterlimit: 10;stroke-width: 0.4240416358751379px"/>
    <path d="M372.39,771.67C571.84,568.83,614.86,204.79,537.16,153S275.4,163.67,248.54,216.69c-12.4,24.46-2.67,406.52-96.31,354s265.64-291.07,241-189.42,55,360.35,231.88,164.47" style="fill: none;stroke: #555bd5;stroke-miterlimit: 10;stroke-width: 0.4240416358751379px"/>
    <path d="M374.3,769.24c195.88-206.29,232.54-571,154-621.42S266.71,163,240.78,216.5c-12,24.68,4.42,406.51-90.12,355.67S411.19,276.51,388.32,378.58,449.57,737.91,623,539" style="fill: none;stroke: #555bd5;stroke-miterlimit: 10;stroke-width: 0.4240416358751379px"/>
    <path d="M376.16,766.77c192.25-209.67,222.54-575,143.08-624S258,162.53,233,216.45c-11.54,24.88,11.51,406.37-83.9,357.18S404.44,273.47,383.36,375.92,450.88,734.13,620.85,532.2" style="fill: none;stroke: #555bd5;stroke-miterlimit: 10;stroke-width: 0.4240416358751379px"/>
    <path d="M378,764.27c188.57-213,212.47-578.79,132.17-626.41s-260.85,24.32-284.9,78.67c-11.09,25.08,18.61,406.11-77.65,358.59S397.65,270.55,378.36,373.36s73.76,357,240.18,152.11" style="fill: none;stroke: #555bd5;stroke-miterlimit: 10;stroke-width: 0.4240416358751379px"/>
    <path d="M379.76,761.74C564.58,545.49,582.09,179.33,501,133.12S240.59,162,217.49,216.75c-10.65,25.27,25.7,405.72-71.37,359.89s244.69-308.88,227.2-205.76,80,355.64,242.79,147.9" style="fill: none;stroke: #555bd5;stroke-miterlimit: 10;stroke-width: 0.4240416358751379px"/>
    <path d="M381.49,759.18c181-219.45,192.14-585.85,110.23-630.64s-259.84,33.41-282,88.57c-10.21,25.45,32.77,405.2-65.09,361.08s239.27-313.11,223.58-209.7S454.4,722.68,613.57,512.13" style="fill: none;stroke: #555bd5;stroke-miterlimit: 10;stroke-width: 0.4240416358751379px"/>
    <path d="M383.18,756.59C560.34,534,565.07,167.47,482.39,124.12S223.17,162.06,202,217.6c-9.76,25.62,39.84,404.57-58.77,362.16S377,262.52,363.1,366.19s92.34,352.63,247.81,139.33" style="fill: none;stroke: #555bd5;stroke-miterlimit: 10;stroke-width: 0.4240416358751379px"/>
    <path d="M384.82,754C558.07,528.34,556.4,161.77,473,119.87s-258.52,42.45-278.72,98.35C184.94,244,241.15,622,141.81,581.35S370,260.08,357.93,364s98.48,351,250.2,135" style="fill: none;stroke: #555bd5;stroke-miterlimit: 10;stroke-width: 0.4240416358751379px"/>
    <path d="M386.42,751.32C555.7,522.7,547.63,156.22,463.49,115.78s-257.74,47-277,103.2c-8.87,26,53.94,402.93-46.1,364S363,257.77,352.72,361.86s104.6,349.19,252.52,130.6" style="fill: none;stroke: #555bd5;stroke-miterlimit: 10;stroke-width: 0.4240416358751379px"/>
    <path d="M388,748.65c165.26-231.55,150.8-597.83,66-636.8s-256.88,51.45-275.12,108c-8.41,26.1,61,401.94-39.74,364.75s216.84-329,208.4-224.79S458.15,707.15,602.24,486" style="fill: none;stroke: #555bd5;stroke-miterlimit: 10;stroke-width: 0.4240416358751379px"/>
    <path d="M389.47,745.94c161.2-234.39,140.35-600.37,54.85-637.84S188.37,164,171.13,220.9c-8,26.24,68,400.81-33.37,365.38S348.82,253.51,342.21,357.9,458.92,703.23,599.13,479.6" style="fill: none;stroke: #555bd5;stroke-miterlimit: 10;stroke-width: 0.4240416358751379px"/>
    <path d="M390.93,743.22C548,506.05,520.78,140.49,434.63,104.51S179.7,164.89,163.45,222.06c-7.49,26.38,75,399.56-27,365.91S341.69,251.57,336.9,356.05s122.72,343.24,259,117.21" style="fill: none;stroke: #555bd5;stroke-miterlimit: 10;stroke-width: 0.4240416358751379px"/>
    <path d="M392.34,740.46c152.92-239.87,119.3-604.9,32.55-639.37S171.05,165.91,155.8,223.36c-7,26.5,81.91,398.19-20.6,366.32S334.53,249.75,331.55,354.3s128.7,341.05,261,112.67" style="fill: none;stroke: #555bd5;stroke-miterlimit: 10;stroke-width: 0.4240416358751379px"/>
  </g>
  <g>
    <path d="M336,357.22V495.85H310.69L250.38,408.6h-1v87.25H220.05V357.22h25.72l59.84,87.19h1.22V357.22Z" style="fill: #fff"/>
    <path d="M360.17,495.85V357.22H452v24.17H389.48v33h56.38v24.16H389.48v57.27Z" style="fill: #fff"/>
    <path d="M466.37,381.39V357.22H580.22v24.17H537.78V495.85h-29V381.39Z" style="fill: #fff"/>
    <path d="M670.93,421.53l-26.4,1.62a13.83,13.83,0,0,0-2.91-6.12,15.87,15.87,0,0,0-5.86-4.4,20.51,20.51,0,0,0-8.63-1.66,21.26,21.26,0,0,0-11.3,2.81q-4.61,2.81-4.6,7.48a8,8,0,0,0,3,6.29q3,2.58,10.23,4.13l18.81,3.79q15.16,3.12,22.61,10t7.45,18.14a28.45,28.45,0,0,1-6,17.94,39.19,39.19,0,0,1-16.38,12,62.15,62.15,0,0,1-23.93,4.3q-20.65,0-32.86-8.63a33.32,33.32,0,0,1-14.32-23.52l28.36-1.49a14.44,14.44,0,0,0,6.23,9.58q4.94,3.29,12.66,3.28,7.57,0,12.21-2.94t4.71-7.62a8,8,0,0,0-3.32-6.46c-2.16-1.7-5.5-3-10-3.9l-18-3.58q-15.24-3-22.64-10.56t-7.42-19.16A27.91,27.91,0,0,1,588,405.62q5.44-7.25,15.37-11.17t23.25-3.92q19.7,0,31,8.32A32.24,32.24,0,0,1,670.93,421.53Z" style="fill: #fff"/>
  </g>
</svg>
