<svg xmlns="http://www.w3.org/2000/svg" width="888" height="888" viewBox="0 0 888 888">
  <title>Token Creation-Transparent</title>
  <g>
    <path d="M549.58,329.68c-182.9-140.43-335.15,62.4-369.12,130S249.06,719,294.37,735.38c20.91,7.55,199.33,55.2,269.54-23.94S492.66,433.77,459.68,514.3s104.62,259.22,188.84,269S964.74,645,789.66,522" style="fill: none;stroke: #555bd5;stroke-miterlimit: 10;stroke-width: 0.3437368549693399px"/>
    <path d="M544.45,325c-185.33-137.22-334,68.24-366.8,136.45s73.11,258.06,118.7,273.64c21,7.19,200.26,51.72,269.08-28.63s-76.08-276.39-107.65-195.3S566.91,768.5,651.29,776.82,965,633,787.84,513.11" style="fill: none;stroke: #555bd5;stroke-miterlimit: 10;stroke-width: 0.3437368549693399px"/>
    <path d="M539.23,320.39c-187.69-134-332.77,74.06-364.36,142.83S252.48,720,298.33,734.75c21.16,6.82,201.13,48.21,268.54-33.33S486,426.4,455.83,508s113.6,255.41,198.11,262.25S965.13,621,785.87,504.23" style="fill: none;stroke: #555bd5;stroke-miterlimit: 10;stroke-width: 0.3437368549693399px"/>
    <path d="M533.93,315.88c-190-130.67-331.42,79.86-361.8,149.17S254.2,720.4,300.3,734.38c21.28,6.45,202,44.7,267.92-38S482.54,422.81,453.82,505s118,253.39,202.66,258.75S965,609.05,783.75,495.39" style="fill: none;stroke: #555bd5;stroke-miterlimit: 10;stroke-width: 0.3437368549693399px"/>
    <path d="M528.56,311.47c-192.26-127.34-330,85.63-359.15,155.46S255.92,720.8,302.27,734c21.38,6.07,202.69,41.16,267.21-42.68S479,419.27,451.76,501.91,574.2,753.19,658.9,757.08s305.8-160,122.57-270.49" style="fill: none;stroke: #555bd5;stroke-miterlimit: 10;stroke-width: 0.3437368549693399px"/>
    <path d="M523.11,307.15c-194.45-124-328.44,91.37-356.38,161.7s90.93,252.33,137.5,264.69c21.48,5.7,203.38,37.62,266.42-47.33s-95.17-270.41-121-187.31S576.45,748,661.21,750.42,964.16,585.09,779,477.83" style="fill: none;stroke: #555bd5;stroke-miterlimit: 10;stroke-width: 0.3437368549693399px"/>
    <path d="M517.58,302.92C321,182.38,190.79,400,164.08,470.82s95.32,250.7,142.1,262.25c21.58,5.33,204,34.07,265.55-52S471.85,412.39,447.47,495.92,578.61,742.79,663.4,743.71s300-170.59,113.05-274.6" style="fill: none;stroke: #555bd5;stroke-miterlimit: 10;stroke-width: 0.3437368549693399px"/>
    <path d="M512,298.8c-198.65-117.1-325,102.78-350.52,174s99.69,249,146.66,259.73c21.67,4.95,204.57,30.5,264.61-56.6S468.17,409.05,445.26,493,580.68,737.53,665.47,737s297-175.8,108.24-276.53" style="fill: none;stroke: #555bd5;stroke-miterlimit: 10;stroke-width: 0.3437368549693399px"/>
    <path d="M506.32,294.77C305.65,181.15,183.11,403.2,158.89,474.9S262.9,722.12,310.05,732C331.8,736.6,515.12,759,573.63,670.82S464.43,405.76,443,490.1,582.66,732.23,667.42,730.2s293.89-181,103.4-278.38" style="fill: none;stroke: #555bd5;stroke-miterlimit: 10;stroke-width: 0.3437368549693399px"/>
    <path d="M500.58,290.84C298,180.74,179.31,404.9,156.34,477S264.66,722.37,312,731.46c21.83,4.19,205.51,23.34,262.48-65.8S460.64,402.55,440.67,487.24,584.54,726.9,669.26,723.39,960,537.33,767.78,443.25" style="fill: none;stroke: #555bd5;stroke-miterlimit: 10;stroke-width: 0.3437368549693399px"/>
    <path d="M494.77,287C290.26,180.47,175.55,406.66,153.84,479.15s112.58,243.45,160,251.7c21.9,3.81,205.89,19.76,261.29-70.37S456.79,399.4,438.3,484.43,586.34,721.54,671,716.55s287.39-191.1,93.62-281.82" style="fill: none;stroke: #555bd5;stroke-miterlimit: 10;stroke-width: 0.3437368549693399px"/>
    <path d="M488.9,283.28c-206.34-103-317.09,125.2-337.53,198.07S268.18,722.79,315.79,730.22c22,3.42,206.19,16.15,260-74.93s-122.92-259-139.92-173.63,152.15,234.49,236.7,228,284-196.09,88.68-283.41" style="fill: none;stroke: #555bd5;stroke-miterlimit: 10;stroke-width: 0.3437368549693399px"/>
    <path d="M483,279.65c-208.1-99.33-314.85,130.72-334,203.93S270,723,317.67,729.54c22,3.05,206.45,12.56,258.68-79.44S448.93,393.3,433.41,478.93s156.23,231.8,240.64,223.86,280.55-201,83.73-284.92" style="fill: none;stroke: #555bd5;stroke-miterlimit: 10;stroke-width: 0.3437368549693399px"/>
    <path d="M477,276.13c-209.8-95.69-312.52,136.2-330.41,209.73s125.17,237.22,173,243c22.07,2.66,206.64,8.95,257.25-84S444.91,390.36,430.9,476.24s160.24,229,244.51,219.63,277-205.88,78.74-286.34" style="fill: none;stroke: #555bd5;stroke-miterlimit: 10;stroke-width: 0.3437368549693399px"/>
    <path d="M470.9,272.72c-211.44-92-310.1,141.63-326.69,215.46s129.28,235,177.21,239.92c22.11,2.28,206.76,5.35,255.74-88.42S440.85,387.49,428.34,473.6s164.22,226.21,248.3,215.33S950,478.24,750.38,401.26" style="fill: none;stroke: #555bd5;stroke-miterlimit: 10;stroke-width: 0.3437368549693399px"/>
    <path d="M464.79,269.41c-213-88.31-307.59,147-322.89,221.13S275.26,723.25,323.27,727.33c22.15,1.89,206.82,1.74,254.16-92.87S436.74,384.69,425.73,471s168.14,223.31,252,211,269.64-215.42,68.7-288.91" style="fill: none;stroke: #555bd5;stroke-miterlimit: 10;stroke-width: 0.3437368549693399px"/>
    <path d="M458.61,266.21c-214.53-84.58-305,152.36-319,226.73S277,723.28,325.11,726.53c22.18,1.5,206.82-1.87,252.5-97.3S432.58,382,423.08,468.45,595.09,688.79,678.75,675s265.84-220.1,63.65-290.06" style="fill: none;stroke: #555bd5;stroke-miterlimit: 10;stroke-width: 0.3437368549693399px"/>
    <path d="M452.38,263.12c-216-80.83-302.26,157.66-315,232.26S278.81,723.29,326.93,725.7c22.2,1.11,206.76-5.49,250.77-101.69S428.38,379.3,420.39,466s175.83,217.3,259.23,202,262-224.71,58.58-291.14" style="fill: none;stroke: #555bd5;stroke-miterlimit: 10;stroke-width: 0.3437368549693399px"/>
    <path d="M446.1,260.13c-217.35-77-299.47,162.92-310.87,237.73s145.36,225.4,193.51,227c22.22.73,206.63-9.09,249-106.05s-153.56-242.06-160-155.29S597.25,677.69,680.37,661s258-229.24,53.49-292.1" style="fill: none;stroke: #555bd5;stroke-miterlimit: 10;stroke-width: 0.3437368549693399px"/>
    <path d="M439.76,257.26C221.1,184,143.19,425.37,133.09,500.37S282.36,723.21,330.54,723.94c22.22.33,206.44-12.7,247.06-110.38S419.83,374.21,414.87,461.08,598.18,672.12,681,654s254-233.71,48.38-293" style="fill: none;stroke: #555bd5;stroke-miterlimit: 10;stroke-width: 0.3437368549693399px"/>
    <path d="M433.38,254.5C213.48,185.09,139.78,427.76,131,502.93S284.13,723.12,332.31,723c22.23,0,206.19-16.3,245.1-114.68S415.49,371.78,412.05,458.72,599,666.53,681.5,646.92s249.84-238.11,43.26-293.8" style="fill: none;stroke: #555bd5;stroke-miterlimit: 10;stroke-width: 0.3437368549693399px"/>
    <path d="M427,251.84C205.87,186.28,136.42,430.21,129,505.51S285.91,723,334.08,722.05c22.22-.44,205.87-19.89,243.05-118.93s-166-233.7-167.95-146.71,190.57,204.51,272.7,183.47S927.53,397.45,720,345.37" style="fill: none;stroke: #555bd5;stroke-miterlimit: 10;stroke-width: 0.3437368549693399px"/>
    <path d="M420.47,249.31c-222.19-61.7-287.37,183.4-293.53,258.83S287.67,722.85,335.82,721.06c22.22-.82,205.49-23.48,241-123.16S406.69,367.14,406.28,454.15s194.1,201.16,275.86,178.68,241.38-246.68,33-295.13" style="fill: none;stroke: #555bd5;stroke-miterlimit: 10;stroke-width: 0.3437368549693399px"/>
    <path d="M414,246.88c-223.23-57.8-284.12,188.4-289,263.92S289.44,722.68,337.55,720C359.74,718.83,542.6,693,576.31,592.7S402.23,364.94,403.34,452,600.92,649.68,682.27,625.78s237-250.86,27.83-295.66" style="fill: none;stroke: #555bd5;stroke-miterlimit: 10;stroke-width: 0.3437368549693399px"/>
    <path d="M407.39,244.57C183.18,190.67,126.6,437.89,123.08,513.49S291.2,722.46,339.26,719c22.17-1.6,204.55-30.64,236.5-131.49s-178-224.69-175.4-137.71S601.36,644,682.28,618.73s232.63-255,22.66-296.1" style="fill: none;stroke: #555bd5;stroke-miterlimit: 10;stroke-width: 0.3437368549693399px"/>
    <path d="M400.79,242.37c-225.11-50-277.37,198.2-279.58,273.84S293,722.22,341,717.91c22.14-2,204-34.2,234.17-135.6S393.2,360.77,397.34,447.69s204.37,190.71,284.83,164,228.14-259,17.49-296.45" style="fill: none;stroke: #555bd5;stroke-miterlimit: 10;stroke-width: 0.3437368549693399px"/>
    <path d="M394.16,240.29c-226-46-273.88,203-274.76,278.68S294.71,722,342.62,716.81C364.72,714.43,546,679,574.39,577.14S388.63,358.8,394.29,445.63,602,632.76,681.94,604.63s223.58-262.92,12.31-296.71" style="fill: none;stroke: #555bd5;stroke-miterlimit: 10;stroke-width: 0.3437368549693399px"/>
    <path d="M387.49,238.33c-226.73-42.09-270.3,207.75-269.86,283.43S296.46,721.65,344.27,715.67c22.06-2.76,202.67-41.31,229.3-143.69S384,356.91,391.2,443.64s210.89,183.46,290.38,154,219-266.78,7.13-296.88" style="fill: none;stroke: #555bd5;stroke-miterlimit: 10;stroke-width: 0.3437368549693399px"/>
    <path d="M380.78,236.48c-227.42-38.13-266.63,212.44-264.87,288.1s182.3,196.74,230,189.92c22-3.14,201.92-44.83,226.75-147.67S379.39,355.11,388.08,441.69s214.06,179.76,293,148.86,214.27-270.56,1.95-297" style="fill: none;stroke: #555bd5;stroke-miterlimit: 10;stroke-width: 0.3437368549693399px"/>
    <path d="M374,234.75C146,200.6,111.17,451.81,114.24,527.43S299.94,721,347.51,713.31c21.95-3.53,201.1-48.36,224.14-151.61S374.72,353.39,384.92,439.8s217.17,176,295.58,143.73S890,309.27,677.26,286.58" style="fill: none;stroke: #555bd5;stroke-miterlimit: 10;stroke-width: 0.3437368549693399px"/>
    <path d="M367.28,233.14C138.66,203,108.23,454.76,112.62,530.3S301.67,720.56,349.1,712.09c21.89-3.91,200.23-51.86,221.46-155.5S370,351.74,381.73,438s220.21,172.18,298,138.54,204.7-277.87-8.41-296.84" style="fill: none;stroke: #555bd5;stroke-miterlimit: 10;stroke-width: 0.3437368549693399px"/>
    <path d="M360.48,231.64c-229.1-26.17-255.14,226.11-249.42,301.57S303.4,720.14,350.67,710.84c21.81-4.3,199.29-55.35,218.71-159.34S365.3,350.18,378.51,436.19,601.69,604.5,678.92,569.51s199.82-281.4-13.59-296.65" style="fill: none;stroke: #555bd5;stroke-miterlimit: 10;stroke-width: 0.3437368549693399px"/>
    <path d="M353.67,230.27C124.14,208.1,102.51,460.79,109.54,536.14S305.11,719.68,352.22,709.56c21.73-4.67,198.29-58.81,215.9-163.13s-207.57-197.72-192.86-112S601.34,598.86,678,562.53s194.88-284.85-18.77-296.37" style="fill: none;stroke: #555bd5;stroke-miterlimit: 10;stroke-width: 0.3437368549693399px"/>
    <path d="M346.82,229C116.94,210.85,99.73,463.88,108.07,539.1S306.82,719.2,353.74,708.25c21.65-5,197.24-62.26,213-166.87S355.78,347.31,372,432.81,600.9,593.23,676.86,555.56s189.88-288.2-23.94-296" style="fill: none;stroke: #555bd5;stroke-miterlimit: 10;stroke-width: 0.3437368549693399px"/>
    <path d="M340,227.88C109.8,213.73,97,467,106.66,542.08S308.52,718.69,355.24,706.92c21.56-5.42,196.12-65.69,210.08-170.56S351,346,368.67,431.2s231.68,156.4,307,117.42,184.82-291.48-29.1-295.54" style="fill: none;stroke: #555bd5;stroke-miterlimit: 10;stroke-width: 0.3437368549693399px"/>
    <path d="M333.08,226.86C102.71,216.73,94.33,470.21,105.3,545.09S310.21,718.15,356.72,705.57c21.46-5.8,194.94-69.11,207.07-174.21S346.16,344.77,365.33,429.65s234.38,152.33,309,112S854,247,640.06,246.71" style="fill: none;stroke: #555bd5;stroke-miterlimit: 10;stroke-width: 0.3437368549693399px"/>
    <path d="M326.18,226C95.67,219.86,91.72,473.44,104,548.12s207.9,169.45,254.18,156.07c21.36-6.18,193.71-72.5,204-177.79S341.32,343.63,362,428.16,599,576.38,672.86,534.79,847.39,237,633.46,240.45" style="fill: none;stroke: #555bd5;stroke-miterlimit: 10;stroke-width: 0.3437368549693399px"/>
    <path d="M319.27,225.19c-230.59-2.08-230.11,251.53-216.54,326S313.56,717,359.6,702.78c21.25-6.55,192.42-75.87,200.86-181.32s-224-178.89-201.88-94.73,239.55,144.06,312.7,101.19,169.31-300.75-44.53-293.61" style="fill: none;stroke: #555bd5;stroke-miterlimit: 10;stroke-width: 0.3437368549693399px"/>
    <path d="M312.35,224.53C81.76,226.47,86.66,480,101.53,554.25S315.22,716.34,361,701.35c21.12-6.92,191.06-79.22,197.66-184.8S331.58,341.6,355.17,425.36s242,139.86,314.42,95.72,164-303.66-49.65-292.79" style="fill: none;stroke: #555bd5;stroke-miterlimit: 10;stroke-width: 0.3437368549693399px"/>
    <path d="M305.41,224c-230.52,6-221.19,259.41-205,333.34s216.49,158.34,262,142.55c21-7.28,189.65-82.54,194.41-188.22s-230.12-171-205.07-87.62,244.43,135.61,316,90.21S826.49,207.79,613,222.39" style="fill: none;stroke: #555bd5;stroke-miterlimit: 10;stroke-width: 0.3437368549693399px"/>
    <path d="M298.47,223.59C68.09,233.57,81.84,486.82,99.29,560.46S318.5,715,363.74,698.41c20.87-7.65,188.18-85.83,191.09-191.59s-233.06-166.91-206.56-84S595,554.12,665.84,507.48,819.18,198.28,606,216.6" style="fill: none;stroke: #555bd5;stroke-miterlimit: 10;stroke-width: 0.3437368549693399px"/>
    <path d="M291.52,223.29c-230.17,14-212,267-193.27,340.3S320.13,714.28,365.07,696.91c20.73-8,186.65-89.11,187.72-194.9s-235.94-162.82-208-80.41,249,127,319,79.13S811.71,188.91,598.89,211" style="fill: none;stroke: #555bd5;stroke-miterlimit: 10;stroke-width: 0.3437368549693399px"/>
    <path d="M284.57,223.12c-229.9,18-207.31,270.64-187.31,343.62S321.74,713.53,366.37,695.38C387,687,551.44,603,550.66,497.24S311.92,338.56,341.29,420.47,592.49,543.11,661.62,494s142.46-314.36-70-288.61" style="fill: none;stroke: #555bd5;stroke-miterlimit: 10;stroke-width: 0.3437368549693399px"/>
    <path d="M277.61,223.07C48.07,245.11,75.05,497.28,96.33,569.91s227,142.85,271.31,123.92c20.45-8.73,183.43-95.56,180.81-201.32S307,338,337.77,419.4s253.3,118.23,321.57,68,136.94-316.8-75-287.34" style="fill: none;stroke: #555bd5;stroke-miterlimit: 10;stroke-width: 0.3437368549693399px"/>
    <path d="M270.66,223.15c-229.13,26-197.74,277.7-175.2,349.94S324.92,712,368.89,692.26c20.29-9.09,181.73-98.75,177.26-204.45S302,337.56,334.23,418.4s255.33,113.79,322.71,62.32,131.39-319.14-80-286" style="fill: none;stroke: #555bd5;stroke-miterlimit: 10;stroke-width: 0.3437368549693399px"/>
    <path d="M263.7,223.34C35.07,253.37,70.84,504.45,94.64,576.29S326.49,711.13,370.11,690.67c20.13-9.44,180-101.91,173.67-207.51s-246.72-146-213.1-65.71S588,526.77,654.42,474.14s125.81-321.39-85-284.56" style="fill: none;stroke: #555bd5;stroke-miterlimit: 10;stroke-width: 0.3437368549693399px"/>
    <path d="M256.76,223.66C28.68,257.67,68.83,508.09,93.88,579.5S328.05,710.28,371.3,689.06c20-9.79,178.18-105,170-210.52s-249.23-141.63-214.21-62,259.14,104.81,324.68,51,120.18-323.53-89.91-283" style="fill: none;stroke: #555bd5;stroke-miterlimit: 10;stroke-width: 0.3437368549693399px"/>
    <path d="M249.81,224.09C22.37,262.08,66.88,511.76,93.17,582.72s236.42,126.68,279.3,104.7C392.25,677.29,548.78,579.29,538.79,474S287.12,336.71,323.52,415.75,584.45,516,649.05,461.1s114.51-325.58-94.84-281.42" style="fill: none;stroke: #555bd5;stroke-miterlimit: 10;stroke-width: 0.3437368549693399px"/>
    <path d="M242.88,224.65C16.13,266.6,65,515.47,92.52,586S331.11,708.49,373.6,685.77C393.2,675.29,548,574.58,536.17,469.45S282.15,336.6,319.92,415s262.64,95.7,326.27,39.66S755,127.12,546.45,174.93" style="fill: none;stroke: #555bd5;stroke-miterlimit: 10;stroke-width: 0.3437368549693399px"/>
    <path d="M236,225.33c-226,45.9-172.79,293.88-144,363.88S332.62,707.55,374.71,684.1C394.12,673.27,547.14,569.88,533.48,465s-256.31-128.4-217.17-50.68,264.27,91.11,326.91,34S746.3,118.88,538.62,170.32" style="fill: none;stroke: #555bd5;stroke-miterlimit: 10;stroke-width: 0.3437368549693399px"/>
    <path d="M229.05,226.13C3.9,276,61.42,523,91.39,592.46S334.11,706.59,375.78,682.4C395,671.24,546.2,565.19,530.7,460.54s-258.5-123.9-218-46.88,265.81,86.48,327.45,28.25S737.45,110.79,530.7,165.85" style="fill: none;stroke: #555bd5;stroke-miterlimit: 10;stroke-width: 0.3437368549693399px"/>
  </g>
  <g>
    <g>
      <ellipse cx="451.24" cy="295.54" rx="79.47" ry="95.72" style="fill: #3234b2"/>
      <ellipse cx="436.76" cy="295.54" rx="79.47" ry="95.72" style="fill: #6163ff;stroke: #fff;stroke-miterlimit: 10;stroke-width: 2.1572327613830566px"/>
      <g>
        <circle cx="450.59" cy="288.6" r="21.09" style="fill: #fff;stroke: #6163ff;stroke-miterlimit: 10;stroke-width: 4.199968946029742px"/>
        <circle cx="418.82" cy="293.02" r="21.09" style="fill: #fff;stroke: #6163ff;stroke-miterlimit: 10;stroke-width: 4.199968946029742px"/>
        <circle cx="439.9" cy="309.69" r="21.09" style="fill: #fff;stroke: #6163ff;stroke-miterlimit: 10;stroke-width: 4.199968946029742px"/>
      </g>
    </g>
    <g>
      <g>
        <ellipse cx="644.33" cy="318.65" rx="58.38" ry="70.33" style="fill: #5679b2"/>
        <ellipse cx="633.7" cy="318.65" rx="58.38" ry="70.33" style="fill: #94d1ff;stroke: #fff;stroke-miterlimit: 10;stroke-width: 1.5849056243896484px"/>
        <g>
          <circle cx="655.63" cy="307.17" r="15.49" style="fill: #fff;stroke: #94d1ff;stroke-miterlimit: 10;stroke-width: 3.0856913189825264px"/>
          <circle cx="633.7" cy="319.5" r="15.49" style="fill: #fff;stroke: #94d1ff;stroke-miterlimit: 10;stroke-width: 3.0856913189825264px"/>
          <circle cx="611.76" cy="330.13" r="15.49" style="fill: #fff;stroke: #94d1ff;stroke-miterlimit: 10;stroke-width: 3.0856913189825264px"/>
        </g>
      </g>
      <g>
        <ellipse cx="254.3" cy="318.65" rx="58.38" ry="70.33" style="fill: #7256b2"/>
        <ellipse cx="243.67" cy="318.65" rx="58.38" ry="70.33" style="fill: #bf94ff;stroke: #fff;stroke-miterlimit: 10;stroke-width: 1.5849056243896484px"/>
        <g>
          <circle cx="262.14" cy="334.41" r="15.49" style="fill: #fff;stroke: #bf94ff;stroke-miterlimit: 10;stroke-width: 3.0856913189825264px"/>
          <circle cx="244.54" cy="320.33" r="15.49" style="fill: #fff;stroke: #bf94ff;stroke-miterlimit: 10;stroke-width: 3.0856913189825264px"/>
          <circle cx="226.94" cy="304.59" r="15.49" style="fill: #fff;stroke: #bf94ff;stroke-miterlimit: 10;stroke-width: 3.0856913189825264px"/>
        </g>
      </g>
    </g>
    <g>
      <g>
        <ellipse cx="451.24" cy="592.46" rx="79.47" ry="95.72" style="fill: #3234b2"/>
        <ellipse cx="436.76" cy="592.46" rx="79.47" ry="95.72" style="fill: #6163ff;stroke: #fff;stroke-miterlimit: 10;stroke-width: 2.1572327613830566px"/>
      </g>
      <path d="M436.42,597l-6.57,22.22h35.22a1.83,1.83,0,0,1,1.8,1.81,2.17,2.17,0,0,1,0,.51l-3.07,10.55a2.4,2.4,0,0,1-2.31,1.74H407.61l9.1-30.71-10.07,3.05,2.23-7.18,10.07-3,12.78-43.15a2.37,2.37,0,0,1,2.3-1.77h13.64a1.81,1.81,0,0,1,1.81,1.8,2.08,2.08,0,0,1-.07.5l-10.72,36.49,10.07-3.07-2.17,7.37Z" style="fill: #fff"/>
    </g>
    <g>
      <line x1="436.76" y1="496.74" x2="436.76" y2="494.24" style="fill: none;stroke: #fff;stroke-miterlimit: 10"/>
      <line x1="436.76" y1="489.46" x2="436.76" y2="396.15" style="fill: none;stroke: #fff;stroke-miterlimit: 10;stroke-dasharray: 4.785150527954102,4.785150527954102"/>
      <line x1="436.76" y1="393.76" x2="436.76" y2="391.26" style="fill: none;stroke: #fff;stroke-miterlimit: 10"/>
    </g>
    <g>
      <line x1="483.28" y1="504.85" x2="485.01" y2="503.05" style="fill: none;stroke: #fff;stroke-miterlimit: 10"/>
      <line x1="488.57" y1="499.34" x2="600.82" y2="382.63" style="fill: none;stroke: #fff;stroke-miterlimit: 10;stroke-dasharray: 5.1405181884765625,5.1405181884765625"/>
      <line x1="602.6" y1="380.78" x2="604.33" y2="378.98" style="fill: none;stroke: #fff;stroke-miterlimit: 10"/>
    </g>
    <g>
      <line x1="404.72" y1="504.85" x2="402.99" y2="503.05" style="fill: none;stroke: #fff;stroke-miterlimit: 10"/>
      <line x1="399.42" y1="499.34" x2="287.18" y2="382.63" style="fill: none;stroke: #fff;stroke-miterlimit: 10;stroke-dasharray: 5.1404500007629395,5.1404500007629395"/>
      <line x1="285.4" y1="380.78" x2="283.67" y2="378.98" style="fill: none;stroke: #fff;stroke-miterlimit: 10"/>
    </g>
  </g>
</svg>
